<svg width="18" height="18" viewBox="0 0 18 18" fill="none" xmlns="http://www.w3.org/2000/svg">
<path d="M9.30177 0.507935C4.50557 0.507935 0.604004 4.41017 0.604004 9.20665C0.604004 14.0028 4.50557 17.9048 9.3018 17.9048C14.0978 17.9048 18.0002 14.0028 18.0002 9.20665C18.0001 4.41017 14.0978 0.507935 9.30177 0.507935ZM9.30177 16.7202C5.15893 16.7202 1.78839 13.3497 1.78839 9.20665C1.78839 5.06332 5.15897 1.69253 9.30177 1.69253C13.445 1.69253 16.8156 5.06328 16.8156 9.20665C16.8156 13.3497 13.445 16.7202 9.30177 16.7202Z" fill="#FBFBFB"/>
<path d="M9.30193 2.97891C5.86834 2.97891 3.07495 5.77276 3.07495 9.2067C3.07495 12.6404 5.86834 15.434 9.30193 15.434C9.87462 15.434 10.338 14.9696 10.338 14.3976C10.338 13.8252 9.87466 13.3611 9.30193 13.3611C7.01123 13.3611 5.14776 11.4973 5.14776 9.2067C5.14776 6.91551 7.01123 5.05172 9.30193 5.05172C11.5925 5.05172 13.4566 6.91555 13.4566 9.2067C13.4566 9.77908 13.9208 10.2431 14.4932 10.2431C15.0659 10.2431 15.5295 9.77904 15.5295 9.2067C15.5295 5.77276 12.7362 2.97891 9.30193 2.97891Z" fill="#FBFBFB"/>
<path d="M10.512 9.25873C10.5125 9.24083 10.517 9.2243 10.517 9.20643C10.517 8.53569 9.97338 7.99115 9.3018 7.99115C8.63064 7.99115 8.08716 8.53569 8.08716 9.20643C8.08716 9.87773 8.63064 10.4217 9.3018 10.4217C9.32395 10.4217 9.34386 10.4163 9.36601 10.4151L12.8587 13.3415C13.0197 13.4771 13.2608 13.4805 13.4257 13.3386C13.6099 13.1811 13.6315 12.9041 13.474 12.7199L10.512 9.25873Z" fill="#FBFBFB"/>
</svg>
