<svg width="18" height="18" viewBox="0 0 18 18" fill="none" xmlns="http://www.w3.org/2000/svg">
<path d="M9.30171 0.507935C4.50551 0.507935 0.603943 4.41017 0.603943 9.20665C0.603943 14.0028 4.50551 17.9048 9.30174 17.9048C14.0978 17.9048 18.0001 14.0028 18.0001 9.20665C18.0001 4.41017 14.0977 0.507935 9.30171 0.507935ZM9.30171 16.7202C5.15887 16.7202 1.78833 13.3497 1.78833 9.20665C1.78833 5.06332 5.1589 1.69253 9.30171 1.69253C13.4449 1.69253 16.8155 5.06328 16.8155 9.20665C16.8155 13.3497 13.4449 16.7202 9.30171 16.7202Z" fill="#FBFBFB"/>
<path d="M9.30175 2.97891C5.86816 2.97891 3.07477 5.77276 3.07477 9.2067C3.07477 12.6404 5.86816 15.434 9.30175 15.434C9.87444 15.434 10.3379 14.9696 10.3379 14.3976C10.3379 13.8252 9.87447 13.3611 9.30175 13.3611C7.01105 13.3611 5.14757 11.4973 5.14757 9.2067C5.14757 6.91551 7.01105 5.05172 9.30175 5.05172C11.5923 5.05172 13.4564 6.91555 13.4564 9.2067C13.4564 9.77908 13.9206 10.2431 14.493 10.2431C15.0657 10.2431 15.5293 9.77904 15.5293 9.2067C15.5293 5.77276 12.736 2.97891 9.30175 2.97891Z" fill="#FBFBFB"/>
<path d="M10.5118 9.25873C10.5124 9.24083 10.5169 9.2243 10.5169 9.20643C10.5169 8.53569 9.97326 7.99115 9.30168 7.99115C8.63052 7.99115 8.08704 8.53569 8.08704 9.20643C8.08704 9.87773 8.63052 10.4217 9.30168 10.4217C9.32383 10.4217 9.34373 10.4163 9.36588 10.4151L12.8586 13.3415C13.0196 13.4771 13.2606 13.4805 13.4256 13.3386C13.6098 13.1811 13.6314 12.9041 13.4739 12.7199L10.5118 9.25873Z" fill="#FBFBFB"/>
</svg>
