<svg width="24" height="24" viewBox="0 0 24 24" fill="none" xmlns="http://www.w3.org/2000/svg">
<g clip-path="url(#clip0_0_1326)">
<path d="M22.8 12.8H8C7.3375 12.8008 6.80078 13.3375 6.8 14V22.8C6.80078 23.4625 7.3375 23.9992 8 24H22.8C23.4625 23.9992 23.9992 23.4625 24 22.8V14C23.9992 13.3375 23.4625 12.8008 22.8 12.8ZM23.2 22.8C23.1998 23.0209 23.0209 23.1998 22.8 23.2H8C7.7791 23.1998 7.6002 23.0209 7.6 22.8V14C7.6002 13.7791 7.7791 13.6002 8 13.6H22.8C23.0209 13.6002 23.1998 13.7791 23.2 14V22.8Z" fill="#787878"/>
<path d="M4.4 12H20.8V10.4C20.7992 9.7375 20.2625 9.20078 19.6 9.2H4.8C4.1375 9.20078 3.60078 9.7375 3.6 10.4V19.2C3.60078 19.8625 4.1375 20.3992 4.8 20.4H6V19.6H4.8C4.5791 19.5998 4.40019 19.4209 4.4 19.2V15.6H6V14.8H4.4V12ZM4.8 10H19.6C19.8209 10.0002 19.9998 10.1791 20 10.4V11.2H4.4V10.4C4.40019 10.1791 4.5791 10.0002 4.8 10Z" fill="#787878"/>
<path d="M21.2 14.4H18.8C18.1375 14.4008 17.6008 14.9375 17.6 15.6V18C17.6008 18.6625 18.1375 19.1992 18.8 19.2H21.2C21.8625 19.1992 22.3992 18.6625 22.4 18V15.6C22.3992 14.9375 21.8625 14.4008 21.2 14.4ZM18.4 18V15.6C18.4002 15.3791 18.5791 15.2002 18.8 15.2H19.2V16H20V15.2H21.2C21.4209 15.2002 21.5998 15.3791 21.6 15.6V16.8H20C19.5584 16.8006 19.2006 17.1584 19.2 17.6V18.4H18.8C18.5791 18.3998 18.4002 18.2209 18.4 18ZM21.2 18.4H20V17.6H21.6V18C21.5998 18.2209 21.4209 18.3998 21.2 18.4Z" fill="#787878"/>
<path d="M16 15.6H16.8V16.4H16V15.6Z" fill="#787878"/>
<path d="M10 15.6H15.2V16.4H10V15.6Z" fill="#787878"/>
<path d="M8.4 15.6H9.2V16.4H8.4V15.6Z" fill="#787878"/>
<path d="M16 17.2H16.8V18H16V17.2Z" fill="#787878"/>
<path d="M10 17.2H15.2V18H10V17.2Z" fill="#787878"/>
<path d="M8.4 17.2H9.2V18H8.4V17.2Z" fill="#787878"/>
<path d="M14 19.2H12.8C12.3584 19.2006 12.0006 19.5584 12 20V21.2C12.0006 21.6416 12.3584 21.9994 12.8 22H14C14.4416 21.9994 14.7994 21.6416 14.8 21.2V20C14.7994 19.5584 14.4416 19.2006 14 19.2ZM14 21.2H12.8V20H14V21.2Z" fill="#787878"/>
<path d="M10.4 19.2H9.2C8.7584 19.2006 8.40059 19.5584 8.4 20V21.2C8.40059 21.6416 8.7584 21.9994 9.2 22H10.4C10.8416 21.9994 11.1994 21.6416 11.2 21.2V20C11.1994 19.5584 10.8416 19.2006 10.4 19.2ZM10.4 21.2H9.2V20H10.4V21.2Z" fill="#787878"/>
<path d="M21.2 20.4H22V21.2H21.2V20.4Z" fill="#787878"/>
<path d="M19.6 20.4H20.4V21.2H19.6V20.4Z" fill="#787878"/>
<path d="M18 20.4H18.8V21.2H18V20.4Z" fill="#787878"/>
<path d="M16.4 20.4H17.2V21.2H16.4V20.4Z" fill="#787878"/>
<path d="M2.4 12.4V8.4H5.6C6.2625 8.39922 6.79922 7.8625 6.8 7.2V4.8C6.79922 4.1375 6.2625 3.60078 5.6 3.6H2.4V1.2C2.4002 0.979102 2.5791 0.800195 2.8 0.8H21.6C21.8209 0.800195 21.9998 0.979102 22 1.2V12H22.8V1.2C22.7992 0.5375 22.2625 0.00078125 21.6 0H2.8C2.1375 0.00078125 1.60078 0.5375 1.6 1.2V3.6H1.2C0.5375 3.60078 0.00078125 4.1375 0 4.8V8.8C0.00078125 9.4625 0.5375 9.99922 1.2 10H1.6V12.4C1.60078 13.0625 2.1375 13.5992 2.8 13.6V12.8C2.5791 12.7998 2.4002 12.6209 2.4 12.4ZM0.8 4.8C0.800195 4.5791 0.979101 4.4002 1.2 4.4H5.6C5.8209 4.4002 5.9998 4.5791 6 4.8V7.2C5.9998 7.4209 5.8209 7.5998 5.6 7.6H0.8V4.8ZM1.2 9.2C0.979101 9.19981 0.800195 9.0209 0.8 8.8V8.4H1.6V9.2H1.2Z" fill="#787878"/>
<path d="M5.2 6C5.2 6.4418 4.8418 6.8 4.4 6.8C3.9582 6.8 3.6 6.4418 3.6 6C3.6 5.5582 3.9582 5.2 4.4 5.2C4.8418 5.2 5.2 5.5582 5.2 6Z" fill="#787878"/>
<path d="M21.2 2.8H20.4C20.3994 2.3584 20.0416 2.00059 19.6 2H18.8C18.3584 2.00059 18.0006 2.3584 18 2.8H15.2C15.1994 2.3584 14.8416 2.00059 14.4 2H13.6C13.1584 2.00059 12.8006 2.3584 12.8 2.8V3.41621L10.5041 5.38398C10.3627 5.26582 10.1844 5.20078 10 5.2H9.2C8.7584 5.20059 8.40058 5.5584 8.4 6H7.6V6.8H8.4C8.40058 7.2416 8.7584 7.59941 9.2 7.6H10C10.4416 7.59941 10.7994 7.2416 10.8 6.8V6.18379L13.0959 4.21602C13.2373 4.33418 13.4156 4.39922 13.6 4.4H14.4C14.8416 4.39941 15.1994 4.0416 15.2 3.6H18C18.0006 4.0416 18.3584 4.39941 18.8 4.4H19.6C20.0416 4.39941 20.3994 4.0416 20.4 3.6H21.2V2.8ZM9.2 6.8V6H10L10.0006 6.8H9.2ZM13.6 3.6V2.8H14.4L14.4006 3.6H13.6ZM18.8 3.6V2.8H19.6L19.6006 3.6H18.8Z" fill="#787878"/>
<path d="M12.4 6.8H13.2V7.6H12.4V6.8Z" fill="#787878"/>
<path d="M14 6.8H19.6V7.6H14V6.8Z" fill="#787878"/>
<path d="M20.4 6.8H21.2V7.6H20.4V6.8Z" fill="#787878"/>
<path d="M13.2 5.2H14V6H13.2V5.2Z" fill="#787878"/>
<path d="M14.8 5.2H19.6V6H14.8V5.2Z" fill="#787878"/>
<path d="M20.4 5.2H21.2V6H20.4V5.2Z" fill="#787878"/>
</g>
<defs>
<clipPath id="clip0_0_1326">
<rect width="24" height="24" fill="white"/>
</clipPath>
</defs>
</svg>
